<?xml version="1.0" encoding="UTF-8" standalone="no"?>
<svg
   xmlns:dc="http://purl.org/dc/elements/1.1/"
   xmlns:cc="http://creativecommons.org/ns#"
   xmlns:rdf="http://www.w3.org/1999/02/22-rdf-syntax-ns#"
   xmlns:svg="http://www.w3.org/2000/svg"
   xmlns="http://www.w3.org/2000/svg"
   xmlns:sodipodi="http://sodipodi.sourceforge.net/DTD/sodipodi-0.dtd"
   xmlns:inkscape="http://www.inkscape.org/namespaces/inkscape"
   version="1.1"
   id="svg2"
   xml:space="preserve"
   width="344.12271"
   height="48.351818"
   viewBox="0 0 344.12273 48.351821"
   sodipodi:docname="logo.svg"
   inkscape:version="1.0.1 (3bc2e813f5, 2020-09-07)"><sodipodi:namedview
     pagecolor="#ffffff"
     bordercolor="#666666"
     borderopacity="1"
     objecttolerance="10"
     gridtolerance="10"
     guidetolerance="10"
     inkscape:pageopacity="0"
     inkscape:pageshadow="2"
     inkscape:window-width="1366"
     inkscape:window-height="711"
     id="namedview293"
     showgrid="false"
     inkscape:zoom="1.9890488"
     inkscape:cx="218.21297"
     inkscape:cy="-29.51244"
     inkscape:window-x="0"
     inkscape:window-y="29"
     inkscape:window-maximized="1"
     inkscape:current-layer="g1392"
     inkscape:document-rotation="0" /><metadata
     id="metadata8"><rdf:RDF><cc:Work
         rdf:about=""><dc:format>image/svg+xml</dc:format><dc:type
           rdf:resource="http://purl.org/dc/dcmitype/StillImage" /><dc:title /></cc:Work></rdf:RDF></metadata><defs
     id="defs6"><clipPath
       clipPathUnits="userSpaceOnUse"
       id="clipPath22"><path
         d="m 1961.54,2349 c -123.66,9.87 -244.53,61.99 -338.91,156.37 -102.11,102.1 -158.34,237.87 -158.34,382.27 0,144.41 56.24,280.17 158.35,382.27 94.39,94.4 215.31,146.39 338.99,156.23 0,-0.03 -0.01,-0.06 -0.01,-0.09 -123.6,-9.88 -244.44,-61.85 -338.79,-156.2 -105.37,-105.38 -158.06,-243.79 -158.06,-382.21 0,-138.42 52.69,-276.83 158.06,-382.21 94.33,-94.33 215.11,-146.3 338.69,-156.19 0,-0.08 0.01,-0.16 0.02,-0.24 m 425.05,155.77 c 0.22,0.22 0.44,0.44 0.66,0.66 l 19.21,19.21 h 0.01 l -19.21,-19.21 c -0.22,-0.21 -0.45,-0.44 -0.67,-0.66 m 502.05,264.03 c -2.18,1.95 -4.32,3.97 -6.41,6.07 l -112.77,112.76 v 0.01 L 2882.3,2774.8 c 2.07,-2.07 4.18,-4.07 6.34,-6 m -119.18,118.84 v 0 l 112.77,112.77 c 2.98,2.98 6.05,5.82 9.2,8.51 -3.12,-2.67 -6.17,-5.49 -9.13,-8.45 l -112.84,-112.83"
         id="path20" /></clipPath><linearGradient
       x1="0"
       y1="0"
       x2="1"
       y2="0"
       gradientUnits="userSpaceOnUse"
       gradientTransform="matrix(1919.32,0,0,-1919.32,1464.29,2886.71)"
       spreadMethod="pad"
       id="linearGradient30"><stop
         style="stop-opacity:1;stop-color:#542790"
         offset="0"
         id="stop24" /><stop
         style="stop-opacity:1;stop-color:#6f133e"
         offset="0.999406"
         id="stop26" /><stop
         style="stop-opacity:1;stop-color:#6f133e"
         offset="1"
         id="stop28" /></linearGradient><clipPath
       clipPathUnits="userSpaceOnUse"
       id="clipPath40"><path
         d="m 2500.02,1851.9 c -144.4,0 -280.17,56.24 -382.27,158.34 -94.34,94.35 -146.32,215.17 -156.21,338.76 0.03,0 0.06,0 0.1,0 7.23,-90.12 36.85,-178.76 88.96,-256.72 18.6,-27.84 40.08,-54.33 64.42,-79.03 0.03,-0.03 0.05,-0.05 0.08,-0.08 0.15,-0.15 0.3,-0.31 0.46,-0.46 0.05,-0.05 0.08,-0.09 0.13,-0.14 0.14,-0.14 0.28,-0.28 0.42,-0.42 0.05,-0.05 0.13,-0.13 0.18,-0.18 0.13,-0.13 0.25,-0.26 0.38,-0.39 0.09,-0.09 0.16,-0.15 0.25,-0.24 0.11,-0.11 0.21,-0.22 0.32,-0.33 0.19,-0.19 0.38,-0.38 0.57,-0.57 v 0 c 36.6,-36.6 77.18,-66.84 120.37,-90.72 81.15,-44.9 171.5,-67.35 261.84,-67.35 70.06,0 140.1,13.5 205.87,40.49 64.19,26.34 124.3,65.53 176.35,117.58 v 0 c 0.19,0.19 0.38,0.38 0.57,0.57 0.11,0.11 0.21,0.22 0.32,0.33 0.09,0.09 0.16,0.15 0.25,0.24 0.12,0.13 0.25,0.26 0.38,0.39 0.05,0.05 0.13,0.13 0.18,0.18 0.14,0.14 0.28,0.28 0.41,0.42 0.05,0.05 0.09,0.09 0.14,0.14 0.16,0.15 0.31,0.31 0.47,0.47 0.01,0.01 0.05,0.05 0.06,0.06 92.56,93.92 143.61,213.54 153.41,335.89 0.03,0.01 0.06,0.01 0.09,0.01 -9.87,-123.64 -61.85,-244.52 -156.23,-338.9 -102.1,-102.1 -237.87,-158.34 -382.27,-158.34"
         id="path38" /></clipPath><linearGradient
       x1="0"
       y1="0"
       x2="1"
       y2="0"
       gradientUnits="userSpaceOnUse"
       gradientTransform="matrix(0,1919.32,1919.32,0,2500.02,1851.9)"
       spreadMethod="pad"
       id="linearGradient48"><stop
         style="stop-opacity:1;stop-color:#542790"
         offset="0"
         id="stop42" /><stop
         style="stop-opacity:1;stop-color:#6f133e"
         offset="0.999406"
         id="stop44" /><stop
         style="stop-opacity:1;stop-color:#6f133e"
         offset="1"
         id="stop46" /></linearGradient><clipPath
       clipPathUnits="userSpaceOnUse"
       id="clipPath58"><path
         d="m 1961.64,2349 c -0.04,0 -0.07,0 -0.1,0 -0.01,0.08 -0.02,0.16 -0.02,0.24 0.03,-0.01 0.07,-0.01 0.1,-0.01 0,-0.08 0.01,-0.16 0.02,-0.23"
         id="path56" /></clipPath><clipPath
       clipPathUnits="userSpaceOnUse"
       id="clipPath70"><path
         d="m 2500.02,3157.08 112.84,112.84 c 8.58,8.58 15.99,17.9 22.2,27.74 -0.24,-0.38 -0.48,-0.77 -0.73,-1.15 -5.9,-9.16 -12.78,-17.77 -20.59,-25.71 -0.29,-0.3 -0.58,-0.59 -0.88,-0.88 l -56.43,-56.44 -56.41,-56.4"
         id="path68" /></clipPath><linearGradient
       x1="0"
       y1="0"
       x2="1"
       y2="0"
       gradientUnits="userSpaceOnUse"
       gradientTransform="matrix(0,1919.32,1919.32,0,2500.02,1851.9)"
       spreadMethod="pad"
       id="linearGradient78"><stop
         style="stop-opacity:1;stop-color:#542790"
         offset="0"
         id="stop72" /><stop
         style="stop-opacity:1;stop-color:#6f133e"
         offset="0.999406"
         id="stop74" /><stop
         style="stop-opacity:1;stop-color:#6f133e"
         offset="1"
         id="stop76" /></linearGradient><clipPath
       clipPathUnits="userSpaceOnUse"
       id="clipPath88"><path
         d="m 3039.41,2617.68 -269.96,269.96 -269.43,-269.43 270.5,-270.49 269.43,269.43 -0.54,0.53"
         id="path86" /></clipPath><clipPath
       clipPathUnits="userSpaceOnUse"
       id="clipPath94"><path
         d="m 2612.8,2505.43 -48.33,48.33 48.33,-48.33 v 0"
         id="path92" /></clipPath><clipPath
       clipPathUnits="userSpaceOnUse"
       id="clipPath106"><path
         d="m 2995.01,2347.36 c -138.43,0 -276.84,52.69 -382.21,158.07 v 0 c 31.09,-31.09 46.63,-71.93 46.63,-112.77 0,-40.84 -15.54,-81.68 -46.63,-112.78 -30.12,-30.11 -70.17,-46.71 -112.77,-46.71 h -0.01 v -380.79 c 138.43,0 276.84,52.69 382.22,158.06 94.34,94.35 146.31,215.18 156.2,338.79 -14.46,-1.15 -28.94,-1.87 -43.43,-1.87"
         id="path104" /></clipPath><clipPath
       clipPathUnits="userSpaceOnUse"
       id="clipPath112"><path
         d="m 2610.77,2277.89 c 0.01,0.01 0.02,0.01 0.02,0.02 -0.01,-0.01 -0.01,-0.01 -0.02,-0.02 m 0.15,0.14 c 0.03,0.03 0.05,0.05 0.08,0.08 -0.03,-0.03 -0.05,-0.05 -0.08,-0.08 m 0.16,0.16 c 0.04,0.03 0.07,0.07 0.11,0.11 -0.03,-0.04 -0.08,-0.08 -0.11,-0.11 m 0.15,0.14 c 0.05,0.05 0.1,0.1 0.15,0.15 -0.05,-0.05 -0.1,-0.1 -0.15,-0.15 m 0.16,0.16 c 0.47,0.46 0.94,0.92 1.41,1.39 -0.47,-0.47 -0.94,-0.93 -1.41,-1.39 m 427.03,70.64 c 0,0.03 0,0.07 0.01,0.1 0,0 0,0 0.01,0 -0.01,-0.03 -0.01,-0.07 -0.01,-0.1 h -0.01 m -390.38,102.9 c -7.77,19.45 -19.51,37.67 -35.24,53.4 v 0 0 0 c 15.73,-15.72 27.47,-33.95 35.24,-53.4"
         id="path110" /></clipPath><clipPath
       clipPathUnits="userSpaceOnUse"
       id="clipPath124"><path
         d="m 2995.01,2347.36 c -138.43,0 -276.84,52.69 -382.21,158.07 v 0 c 31.09,-31.09 46.63,-71.93 46.63,-112.77 0,-40.84 -15.54,-81.68 -46.63,-112.78 -30.12,-30.11 -70.17,-46.71 -112.77,-46.71 h -0.01 v -380.79 c 138.43,0 276.84,52.69 382.22,158.06 94.34,94.35 146.31,215.18 156.2,338.79 -14.46,-1.15 -28.94,-1.87 -43.43,-1.87"
         id="path122" /></clipPath><clipPath
       clipPathUnits="userSpaceOnUse"
       id="clipPath130"><path
         d="m 2705.89,1892.86 c 64.18,26.34 124.29,65.54 176.34,117.59 94.32,94.31 146.3,215.11 156.19,338.68 h 0.01 c -9.8,-122.35 -60.85,-241.97 -153.41,-335.89 -0.01,-0.01 -0.05,-0.05 -0.06,-0.06 -0.16,-0.16 -0.31,-0.32 -0.47,-0.47 -0.05,-0.05 -0.09,-0.09 -0.14,-0.14 -0.13,-0.14 -0.27,-0.28 -0.41,-0.42 -0.05,-0.05 -0.13,-0.13 -0.18,-0.18 -0.13,-0.13 -0.26,-0.26 -0.38,-0.39 -0.09,-0.09 -0.16,-0.15 -0.25,-0.24 -0.11,-0.11 -0.21,-0.22 -0.32,-0.33 -0.19,-0.19 -0.38,-0.38 -0.57,-0.57 v 0 c -52.05,-52.05 -112.16,-91.24 -176.35,-117.58"
         id="path128" /></clipPath><clipPath
       clipPathUnits="userSpaceOnUse"
       id="clipPath142"><path
         d="m 2995.01,2347.36 c -138.43,0 -276.84,52.69 -382.21,158.07 v 0 c 31.09,-31.09 46.63,-71.93 46.63,-112.77 0,-40.84 -15.54,-81.68 -46.63,-112.78 -30.12,-30.11 -70.17,-46.71 -112.77,-46.71 h -0.01 v -380.79 c 138.43,0 276.84,52.69 382.22,158.06 94.34,94.35 146.31,215.18 156.2,338.79 -14.46,-1.15 -28.94,-1.87 -43.43,-1.87"
         id="path140" /></clipPath><clipPath
       clipPathUnits="userSpaceOnUse"
       id="clipPath148"><path
         d="m 2612.8,2505.43 v 0 0 0 0"
         id="path146" /></clipPath><clipPath
       clipPathUnits="userSpaceOnUse"
       id="clipPath160"><path
         d="m 2995.01,3427.84 c -138.43,0 -276.84,-52.68 -382.21,-158.07 v 0.01 c 31.09,31.09 46.63,71.93 46.63,112.77 0,40.84 -15.54,81.68 -46.63,112.77 -30.12,30.12 -70.17,46.71 -112.77,46.71 h -0.01 v 380.79 c 138.43,0 276.84,-52.68 382.22,-158.06 94.34,-94.34 146.31,-215.18 156.2,-338.79 -14.46,1.16 -28.94,1.87 -43.43,1.87"
         id="path158" /></clipPath><clipPath
       clipPathUnits="userSpaceOnUse"
       id="clipPath166"><path
         d="m 2635.06,3297.66 c 16.25,25.84 24.37,55.37 24.37,84.89 v 0 0 c 0,40.84 -15.54,81.68 -46.63,112.77 -30.12,30.12 -70.17,46.71 -112.77,46.71 h -0.01 v 0.07 c 42.6,0 82.65,-16.59 112.78,-46.71 30.12,-30.12 46.71,-70.17 46.71,-112.77 0,-19.15 -3.35,-37.8 -9.78,-55.25 -3.8,-10.27 -8.68,-20.23 -14.67,-29.71 m 403.37,128.38 v 0 c -0.6,7.46 -1.35,14.92 -2.25,22.35 0.9,-7.43 1.65,-14.89 2.25,-22.35"
         id="path164" /></clipPath><clipPath
       clipPathUnits="userSpaceOnUse"
       id="clipPath178"><path
         d="m 2995.01,3427.84 c -138.43,0 -276.84,-52.68 -382.21,-158.07 v 0.01 c 31.09,31.09 46.63,71.93 46.63,112.77 0,40.84 -15.54,81.68 -46.63,112.77 -30.12,30.12 -70.17,46.71 -112.77,46.71 h -0.01 v 380.79 c 138.43,0 276.84,-52.68 382.22,-158.06 94.34,-94.34 146.31,-215.18 156.2,-338.79 -14.46,1.16 -28.94,1.87 -43.43,1.87"
         id="path176" /></clipPath><clipPath
       clipPathUnits="userSpaceOnUse"
       id="clipPath184"><path
         d="m 2634.33,3296.51 c 0.25,0.38 0.49,0.77 0.73,1.15 5.99,9.48 10.87,19.44 14.67,29.71 -3.98,-10.79 -9.13,-21.13 -15.4,-30.86"
         id="path182" /></clipPath><clipPath
       clipPathUnits="userSpaceOnUse"
       id="clipPath196"><path
         d="m 1959.82,3382.62 c 0,-138.42 52.69,-276.84 158.08,-382.21 h -0.02 c -31.08,31.09 -71.92,46.64 -112.77,46.64 -40.84,0 -81.68,-15.55 -112.77,-46.64 -30.12,-30.12 -46.71,-70.17 -46.71,-112.77 v 0 h -380.79 c 0,138.42 52.69,276.83 158.06,382.21 94.35,94.35 215.19,146.32 338.79,156.2 -1.15,-14.46 -1.87,-28.94 -1.87,-43.43"
         id="path194" /></clipPath><clipPath
       clipPathUnits="userSpaceOnUse"
       id="clipPath202"><path
         d="m 1845.63,2887.64 h -0.07 v 0 c 0,42.6 16.59,82.65 46.72,112.77 31.08,31.09 71.92,46.64 112.76,46.64 0.01,0 0.02,0 0.04,0 -40.83,-0.01 -81.66,-15.56 -112.74,-46.64 -30.12,-30.12 -46.71,-70.17 -46.71,-112.77 v 0"
         id="path200" /></clipPath><clipPath
       clipPathUnits="userSpaceOnUse"
       id="clipPath214"><path
         d="m 2005.04,2347.36 c 138.43,0 276.84,52.69 382.22,158.07 v 0 c -31.1,-31.09 -46.65,-71.93 -46.65,-112.77 0,-40.84 15.55,-81.68 46.65,-112.78 30.11,-30.11 70.16,-46.71 112.76,-46.71 v 0 -380.79 c -138.41,0 -276.83,52.69 -382.21,158.06 -94.34,94.35 -146.32,215.18 -156.19,338.79 14.45,-1.15 28.93,-1.87 43.42,-1.87"
         id="path212" /></clipPath><clipPath
       clipPathUnits="userSpaceOnUse"
       id="clipPath220"><path
         d="m 2238.18,1919.72 c -43.19,23.88 -83.77,54.12 -120.37,90.72 v 0 c -0.19,0.19 -0.38,0.38 -0.57,0.57 -0.11,0.11 -0.21,0.22 -0.32,0.33 -0.09,0.09 -0.16,0.15 -0.25,0.24 -0.13,0.13 -0.25,0.26 -0.38,0.39 -0.05,0.05 -0.13,0.13 -0.18,0.18 -0.14,0.14 -0.28,0.28 -0.42,0.42 -0.05,0.05 -0.08,0.09 -0.13,0.14 -0.16,0.15 -0.31,0.31 -0.46,0.46 -0.03,0.03 -0.05,0.05 -0.08,0.08 -24.34,24.7 -45.82,51.19 -64.42,79.03 19.31,-28.9 41.71,-56.34 67.21,-81.83 36.6,-36.6 77.18,-66.84 120.37,-90.73"
         id="path218" /></clipPath><clipPath
       clipPathUnits="userSpaceOnUse"
       id="clipPath232"><path
         d="m 2005.04,2347.36 c 138.43,0 276.84,52.69 382.22,158.07 v 0 c -31.1,-31.09 -46.65,-71.93 -46.65,-112.77 0,-40.84 15.55,-81.68 46.65,-112.78 30.11,-30.11 70.16,-46.71 112.76,-46.71 v 0 -380.79 c -138.41,0 -276.83,52.69 -382.21,158.06 -94.34,94.35 -146.32,215.18 -156.19,338.79 14.45,-1.15 28.93,-1.87 43.42,-1.87"
         id="path230" /></clipPath><clipPath
       clipPathUnits="userSpaceOnUse"
       id="clipPath238"><path
         d="m 2389.1,2278.07 c -0.01,0 -0.01,0.01 -0.02,0.02 0.01,-0.01 0.01,-0.01 0.02,-0.02"
         id="path236" /></clipPath><clipPath
       clipPathUnits="userSpaceOnUse"
       id="clipPath250"><path
         d="m 2005.04,2347.36 c 138.43,0 276.84,52.69 382.22,158.07 v 0 c -31.1,-31.09 -46.65,-71.93 -46.65,-112.77 0,-40.84 15.55,-81.68 46.65,-112.78 30.11,-30.11 70.16,-46.71 112.76,-46.71 v 0 -380.79 c -138.41,0 -276.83,52.69 -382.21,158.06 -94.34,94.35 -146.32,215.18 -156.19,338.79 14.45,-1.15 28.93,-1.87 43.42,-1.87"
         id="path248" /></clipPath><clipPath
       clipPathUnits="userSpaceOnUse"
       id="clipPath256"><path
         d="m 2388.94,2278.22 c -0.02,0.02 -0.04,0.04 -0.06,0.06 0.02,-0.02 0.04,-0.04 0.06,-0.06"
         id="path254" /></clipPath><clipPath
       clipPathUnits="userSpaceOnUse"
       id="clipPath276"><path
         d="m 2005.04,2347.36 c 138.43,0 276.84,52.69 382.22,158.07 v 0 c -31.1,-31.09 -46.65,-71.93 -46.65,-112.77 0,-40.84 15.55,-81.68 46.65,-112.78 30.11,-30.11 70.16,-46.71 112.76,-46.71 v 0 -380.79 c -138.41,0 -276.83,52.69 -382.21,158.06 -94.34,94.35 -146.32,215.18 -156.19,338.79 14.45,-1.15 28.93,-1.87 43.42,-1.87"
         id="path274" /></clipPath><clipPath
       clipPathUnits="userSpaceOnUse"
       id="clipPath282"><path
         d="m 2388.47,2278.68 c -0.41,0.4 -0.81,0.8 -1.21,1.2 0.4,-0.4 0.8,-0.8 1.21,-1.2"
         id="path280" /></clipPath><clipPath
       clipPathUnits="userSpaceOnUse"
       id="clipPath294"><path
         d="m 2005.04,2347.36 c 138.43,0 276.84,52.69 382.22,158.07 v 0 c -31.1,-31.09 -46.65,-71.93 -46.65,-112.77 0,-40.84 15.55,-81.68 46.65,-112.78 30.11,-30.11 70.16,-46.71 112.76,-46.71 v 0 -380.79 c -138.41,0 -276.83,52.69 -382.21,158.06 -94.34,94.35 -146.32,215.18 -156.19,338.79 14.45,-1.15 28.93,-1.87 43.42,-1.87"
         id="path292" /></clipPath><clipPath
       clipPathUnits="userSpaceOnUse"
       id="clipPath300"><path
         d="m 2340.61,2392.66 v 0 c 0,40.55 15.32,81.09 45.97,112.1 0.2,0.2 0.4,0.4 0.6,0.6 l 0.08,0.07 v 0 c -31.1,-31.09 -46.65,-71.93 -46.65,-112.77"
         id="path298" /></clipPath><clipPath
       clipPathUnits="userSpaceOnUse"
       id="clipPath312"><path
         d="m 2005.04,2347.36 c 138.43,0 276.84,52.69 382.22,158.07 v 0 c -31.1,-31.09 -46.65,-71.93 -46.65,-112.77 0,-40.84 15.55,-81.68 46.65,-112.78 30.11,-30.11 70.16,-46.71 112.76,-46.71 v 0 -380.79 c -138.41,0 -276.83,52.69 -382.21,158.06 -94.34,94.35 -146.32,215.18 -156.19,338.79 14.45,-1.15 28.93,-1.87 43.42,-1.87"
         id="path310" /></clipPath><clipPath
       clipPathUnits="userSpaceOnUse"
       id="clipPath318"><path
         d="m 2386.58,2504.76 0.01,0.01 c 0.22,0.22 0.45,0.45 0.67,0.66 v 0 l -0.08,-0.07 c -0.2,-0.2 -0.4,-0.4 -0.6,-0.6"
         id="path316" /></clipPath><clipPath
       clipPathUnits="userSpaceOnUse"
       id="clipPath330"><path
         d="m 2500.03,2233.17 h -0.01 v 0 c -41.74,0 -81.02,15.93 -110.92,44.9 30.85,-29.88 70.88,-44.83 110.92,-44.83 39.96,0 79.92,14.89 110.75,44.65 -29.88,-28.85 -69.09,-44.72 -110.74,-44.72 m 110.76,44.74 c 0.04,0.04 0.09,0.08 0.13,0.12 -0.04,-0.04 -0.09,-0.08 -0.13,-0.12 m 0.21,0.2 c 0.03,0.02 0.05,0.05 0.08,0.08 -0.03,-0.03 -0.05,-0.05 -0.08,-0.08 m 0.19,0.19 c 0.02,0.01 0.02,0.02 0.04,0.03 -0.01,-0.01 -0.03,-0.02 -0.04,-0.03 m 0.19,0.18 0.01,0.01 c 0,-0.01 -0.01,-0.01 -0.01,-0.01 m 1.42,1.4 c 31.09,31.1 46.63,71.94 46.63,112.78 0,20.18 -3.8,40.36 -11.39,59.37 7.6,-19.01 11.39,-39.19 11.39,-59.37 v 0 0 c 0,-40.84 -15.54,-81.68 -46.63,-112.78 m 381.88,67.51 c -12.47,0 -24.95,0.43 -37.4,1.28 -125.59,8.71 -248.68,60.96 -344.48,156.76 l 134.72,134.71 11.3,-11.3 c 71.46,-71.46 165.13,-107.19 258.8,-107.19 93.66,0 187.33,35.73 258.8,107.19 142.93,142.93 142.93,374.67 0,517.59 v 0.01 c -71.47,71.46 -165.14,107.19 -258.8,107.19 -93.67,0 -187.34,-35.73 -258.8,-107.19 l -258.8,-258.8 -258.79,-258.8 c -71.46,-71.46 -165.13,-107.19 -258.8,-107.19 -93.66,0 -187.33,35.73 -258.79,107.19 -71.47,71.47 -107.2,165.13 -107.2,258.8 h 229.12 c 0,-42.6 16.59,-82.65 46.72,-112.77 30.11,-30.12 70.17,-46.72 112.76,-46.72 42.6,0 82.66,16.6 112.77,46.72 l 112.78,112.77 -112.78,112.77 c -31.08,31.08 -71.9,46.63 -112.73,46.64 0.01,0 0.02,0 0.03,0 40.23,0 80.46,-15.09 111.37,-45.25 0.32,-0.35 0.65,-0.69 0.98,-1.04 l 113.13,-113.12 179.62,179.62 89.82,89.82 56.4,56.4 56.37,56.37 c 0.32,0.31 0.63,0.63 0.94,0.95 0.55,0.54 1.11,1.1 1.66,1.64 -0.85,-0.89 -1.72,-1.78 -2.6,-2.66 v 0 -0.01 c 105.37,105.39 243.78,158.07 382.21,158.07 14.49,0 28.97,-0.71 43.43,-1.87 v 0 0 c 0,0.02 -0.01,0.05 -0.01,0.07 123.6,-9.87 244.44,-61.85 338.79,-156.19 105.37,-105.38 158.06,-243.79 158.06,-382.21 0,-138.42 -52.69,-276.83 -158.06,-382.21 -94.35,-94.35 -215.19,-146.33 -338.79,-156.2 v 0 c -9.55,-0.76 -19.11,-1.33 -28.68,-1.63 -5.02,-0.14 -10.04,-0.21 -15.07,-0.21 m -588.22,177.25 -0.13,0.16 228.27,228.27 0.14,-0.15 -134.72,-134.71 64.45,-64.45 -64.44,64.44 h -0.01 v 0 l -93.56,-93.56 m 588.68,203.42 c -38.13,0 -76.26,13.58 -106.5,40.74 30.18,-27.05 68.26,-40.57 106.35,-40.57 40.84,0 81.7,15.55 112.79,46.64 31.09,31.09 46.64,71.93 46.64,112.77 0,40.84 -15.55,81.68 -46.64,112.77 -31.09,31.09 -71.94,46.64 -112.78,46.64 -36.93,0 -73.85,-12.71 -103.57,-38.13 29.78,25.53 66.74,38.29 103.71,38.29 40.84,0 81.68,-15.58 112.84,-46.74 31.16,-31.15 46.74,-71.99 46.74,-112.83 0,-40.84 -15.58,-81.68 -46.74,-112.84 -31.16,-31.16 -72,-46.74 -112.84,-46.74 m -879.23,274.34 c -71.23,71.96 -118.08,159.12 -140.55,251.07 0.04,0 0.07,0 0.11,0 -13.86,56.56 -18.33,114.92 -13.74,172.68 -0.03,0 -0.06,0 -0.1,-0.01 9.89,123.58 61.86,244.37 156.18,338.69 105.39,105.39 243.78,158.06 382.22,158.06 138.39,0 276.83,-52.69 382.2,-158.06 88.65,-88.65 139.89,-200.69 153.95,-316.44 -13.55,111.37 -61.5,219.3 -144.1,306.27 -0.01,0.01 -0.04,0.05 -0.06,0.06 -0.11,0.12 -0.22,0.23 -0.34,0.36 -0.08,0.09 -0.15,0.16 -0.24,0.25 -0.09,0.1 -0.18,0.2 -0.28,0.3 -0.1,0.1 -0.2,0.21 -0.3,0.31 -0.08,0.09 -0.17,0.18 -0.25,0.26 -0.11,0.12 -0.23,0.24 -0.34,0.36 -0.07,0.07 -0.15,0.15 -0.22,0.23 -0.12,0.13 -0.25,0.26 -0.38,0.39 -0.06,0.07 -0.12,0.13 -0.19,0.2 -0.14,0.14 -0.28,0.29 -0.42,0.43 -0.05,0.05 -0.1,0.11 -0.15,0.16 -0.17,0.18 -0.33,0.34 -0.51,0.53 -0.02,0.01 -0.04,0.04 -0.06,0.06 -0.61,0.63 -1.19,1.23 -1.8,1.85 -0.01,0.01 -0.03,0.03 -0.04,0.04 -0.18,0.18 -0.37,0.38 -0.55,0.56 -0.03,0.03 -0.07,0.07 -0.1,0.11 -0.17,0.16 -0.32,0.32 -0.49,0.49 -0.04,0.05 -0.08,0.08 -0.12,0.13 -0.16,0.15 -0.32,0.32 -0.47,0.47 -0.05,0.05 -0.09,0.1 -0.14,0.14 -0.15,0.16 -0.31,0.31 -0.46,0.47 -0.04,0.04 -0.09,0.09 -0.14,0.14 -0.15,0.15 -0.3,0.3 -0.46,0.46 -0.05,0.05 -0.09,0.09 -0.14,0.15 -0.16,0.15 -0.31,0.31 -0.46,0.46 -0.05,0.05 -0.09,0.09 -0.14,0.14 -0.19,0.19 -0.4,0.4 -0.59,0.59 -105.38,105.38 -243.79,158.06 -382.22,158.06 v -151.6 0 c -93.66,0 -187.32,-35.73 -258.79,-107.19 -142.93,-142.93 -142.93,-374.67 0,-517.6 l 7.69,-7.69 -134.63,-134.63 c 0.55,-0.56 1.09,-1.13 1.62,-1.71 m 384.11,154.68 -112.83,112.84 c -62.32,62.32 -62.32,163.35 0,225.67 31.16,31.16 71.99,46.74 112.83,46.74 v 0 -0.23 0 c -42.6,0 -82.65,-16.59 -112.76,-46.71 -31.1,-31.09 -46.64,-71.93 -46.64,-112.77 0,-40.84 15.54,-81.68 46.64,-112.77 l 112.76,-112.77"
         id="path328" /></clipPath><linearGradient
       x1="0"
       y1="0"
       x2="1"
       y2="0"
       gradientUnits="userSpaceOnUse"
       gradientTransform="matrix(1259.4,1259.4,1259.4,-1259.4,1870.32,2257.94)"
       spreadMethod="pad"
       id="linearGradient336"><stop
         style="stop-opacity:1;stop-color:#634aa8"
         offset="0"
         id="stop332" /><stop
         style="stop-opacity:1;stop-color:#ed0b82"
         offset="1"
         id="stop334" /></linearGradient><clipPath
       clipPathUnits="userSpaceOnUse"
       id="clipPath346"><path
         d="m 2005.29,2347.6 c -14.6,0 -29.21,0.59 -43.78,1.75 0,-0.04 0,-0.08 0.01,-0.11 -123.58,9.89 -244.36,61.86 -338.69,156.19 -105.37,105.38 -158.06,243.79 -158.06,382.21 0,138.42 52.69,276.83 158.06,382.21 94.35,94.35 215.19,146.32 338.79,156.2 0,0.03 0.01,0.06 0.01,0.09 0.04,0.01 0.07,0.01 0.1,0.01 -4.59,-57.76 -0.12,-116.12 13.74,-172.68 -0.04,0 -0.07,0 -0.11,0 -10.36,42.37 -15.54,85.76 -15.54,129.15 0,14.49 0.72,28.97 1.87,43.43 -119.98,-9.59 -237.35,-58.84 -330.42,-148.01 l -0.02,-0.01 c -0.17,-0.17 -0.34,-0.33 -0.51,-0.5 -0.03,-0.02 -0.06,-0.05 -0.09,-0.08 -0.15,-0.15 -0.32,-0.3 -0.47,-0.45 -0.04,-0.04 -0.1,-0.09 -0.14,-0.13 -0.14,-0.14 -0.29,-0.28 -0.43,-0.42 -0.05,-0.05 -0.1,-0.1 -0.15,-0.15 -0.14,-0.13 -0.29,-0.27 -0.43,-0.41 -0.05,-0.05 -0.11,-0.11 -0.16,-0.16 -0.24,-0.23 -0.49,-0.47 -0.73,-0.71 -0.08,-0.08 -0.17,-0.16 -0.25,-0.24 -0.08,-0.08 -0.17,-0.17 -0.26,-0.25 -0.1,-0.1 -0.23,-0.22 -0.33,-0.33 -0.09,-0.09 -0.17,-0.16 -0.26,-0.25 -0.12,-0.12 -0.23,-0.22 -0.34,-0.34 -0.08,-0.08 -0.16,-0.15 -0.25,-0.23 -0.11,-0.12 -0.24,-0.24 -0.35,-0.36 -0.08,-0.07 -0.15,-0.14 -0.23,-0.22 -0.13,-0.13 -0.25,-0.24 -0.38,-0.37 -0.07,-0.08 -0.15,-0.15 -0.22,-0.22 -0.12,-0.12 -0.25,-0.25 -0.37,-0.37 -0.07,-0.07 -0.16,-0.15 -0.23,-0.22 -0.13,-0.13 -0.25,-0.25 -0.38,-0.38 -0.07,-0.07 -0.14,-0.14 -0.21,-0.21 -0.14,-0.14 -0.27,-0.26 -0.41,-0.41 -0.06,-0.06 -0.12,-0.12 -0.18,-0.18 -0.2,-0.19 -0.4,-0.39 -0.59,-0.59 -105.37,-105.38 -158.06,-243.79 -158.06,-382.21 h 151.6 c 0,-93.67 35.73,-187.33 107.2,-258.8 71.46,-71.46 165.13,-107.19 258.79,-107.19 93.67,0 187.34,35.73 258.8,107.19 l 258.79,258.8 258.8,258.8 c 71.46,71.46 165.13,107.19 258.8,107.19 93.66,0 187.33,-35.73 258.8,-107.19 v -0.01 c 142.93,-142.92 142.93,-374.66 0,-517.59 -71.47,-71.46 -165.14,-107.19 -258.8,-107.19 -93.67,0 -187.34,35.73 -258.8,107.19 l -11.3,11.3 134.72,134.73 -112.79,112.77 h 0.01 l -134.72,-134.72 -0.14,0.15 -228.27,-228.27 0.13,-0.16 -19.21,-19.21 c -0.22,-0.22 -0.44,-0.44 -0.66,-0.66 -72.22,-71.98 -159.87,-119.26 -252.39,-141.87 0,0.06 0,0.12 0,0.19 -42.3,-10.37 -85.6,-15.49 -128.91,-15.49 m 883.35,421.2 c 30.24,-27.16 68.37,-40.74 106.5,-40.74 40.84,0 81.68,15.58 112.84,46.74 31.16,31.16 46.74,72 46.74,112.84 0,40.84 -15.58,81.68 -46.74,112.83 -31.16,31.16 -72,46.74 -112.84,46.74 -36.97,0 -73.93,-12.76 -103.71,-38.29 -3.15,-2.69 -6.22,-5.53 -9.2,-8.51 l -112.77,-112.77 v 0 -0.01 l 112.77,-112.76 c 2.09,-2.1 4.23,-4.12 6.41,-6.07"
         id="path344" /></clipPath><clipPath
       clipPathUnits="userSpaceOnUse"
       id="clipPath358"><path
         d="m 2500.02,1852.37 c -90.34,0 -180.69,22.45 -261.84,67.35 81.15,-44.89 171.5,-67.34 261.84,-67.34 v 0 c 70.05,0 140.1,13.5 205.87,40.48 -65.77,-26.99 -135.81,-40.49 -205.87,-40.49 m -449.42,239.91 c -52.11,77.96 -81.73,166.6 -88.96,256.72 v 0 c 7.24,-90.12 36.85,-178.75 88.96,-256.72 m 944.41,255.08 c -12.58,0 -25.17,0.44 -37.73,1.31 12.45,-0.85 24.93,-1.28 37.4,-1.28 5.03,0 10.05,0.07 15.07,0.21 -4.91,-0.15 -9.83,-0.24 -14.74,-0.24"
         id="path356" /></clipPath><clipPath
       clipPathUnits="userSpaceOnUse"
       id="clipPath370"><path
         d="m 2005.04,2347.36 c -14.49,0 -28.97,0.72 -43.42,1.87 0.01,-0.08 0.01,-0.16 0.02,-0.23 v 0 c -0.01,0.07 -0.02,0.15 -0.02,0.23 -0.03,0 -0.07,0 -0.1,0.01 -0.01,0.03 -0.01,0.07 -0.01,0.11 14.57,-1.16 29.18,-1.75 43.78,-1.75 43.31,0 86.61,5.12 128.91,15.49 0,-0.07 0,-0.13 0,-0.19 -42.37,-10.36 -85.77,-15.54 -129.16,-15.54"
         id="path368" /></clipPath><clipPath
       clipPathUnits="userSpaceOnUse"
       id="clipPath382"><path
         d="m 2410.21,3067.26 89.81,89.82 -116.38,116.38 -134.72,-134.72 -7.69,7.69 c -142.93,142.93 -142.93,374.67 0,517.6 71.47,71.46 165.13,107.19 258.79,107.19 v 0 -228.89 0 c -40.84,0 -81.67,-15.58 -112.83,-46.74 -62.32,-62.32 -62.32,-163.35 0,-225.67 l 112.83,-112.84 56.41,56.4 -56.4,-56.4 -89.82,-89.82 m 203.53,203.54 c 7.81,7.94 14.69,16.55 20.59,25.71 -5.43,-8.47 -11.74,-16.54 -18.93,-24.07 -0.55,-0.54 -1.11,-1.1 -1.66,-1.64"
         id="path380" /></clipPath><clipPath
       clipPathUnits="userSpaceOnUse"
       id="clipPath394"><path
         d="m 2612.8,2505.43 v 0 0 l -48.33,48.33 -64.45,64.45 134.72,134.71 112.78,-112.78 -134.72,-134.71"
         id="path392" /></clipPath><clipPath
       clipPathUnits="userSpaceOnUse"
       id="clipPath406"><path
         d="m 2747.52,2640.14 -112.78,112.78 134.71,134.72 h 0.01 l 112.77,-112.78 -134.71,-134.72"
         id="path404" /></clipPath><clipPath
       clipPathUnits="userSpaceOnUse"
       id="clipPath418"><path
         d="m 2230.59,2887.64 -113.13,113.12 c -0.33,0.35 -0.66,0.69 -0.98,1.04 0.47,-0.46 0.93,-0.92 1.4,-1.39 h 0.02 v 0 c -0.67,0.66 -1.33,1.33 -1.99,1.99 -0.53,0.58 -1.07,1.15 -1.62,1.71 l 134.63,134.63 116.39,-116.38 44.9,44.9 -179.62,-179.62"
         id="path416" /></clipPath><clipPath
       clipPathUnits="userSpaceOnUse"
       id="clipPath430"><path
         d="m 2365.31,3022.36 -116.39,116.38 134.72,134.72 116.38,-116.38 -89.81,-89.82 -44.9,-44.9"
         id="path428" /></clipPath><clipPath
       clipPathUnits="userSpaceOnUse"
       id="clipPath442"><path
         d="m 2500.02,2004.05 v 229.12 h 0.01 c 41.65,0 80.86,15.87 110.74,44.72 0.01,0.01 0.01,0.01 0.02,0.02 0.04,0.04 0.09,0.08 0.13,0.12 0.03,0.03 0.05,0.05 0.08,0.08 0.03,0.03 0.05,0.05 0.08,0.08 0.03,0.03 0.08,0.07 0.11,0.11 0.01,0.01 0.03,0.02 0.04,0.03 0.05,0.05 0.1,0.1 0.15,0.15 0,0 0.01,0 0.01,0.01 0.47,0.46 0.94,0.92 1.41,1.39 v 0 c 31.09,31.1 46.63,71.94 46.63,112.78 v 0 0 c 0,20.18 -3.79,40.36 -11.39,59.37 -7.77,19.45 -19.51,37.68 -35.24,53.4 v 0 c 95.8,-95.8 218.89,-148.05 344.48,-156.76 -30.74,2.11 -61.35,6.82 -91.43,14.18 -1.79,-91.25 -37.39,-181.96 -107.03,-251.6 -71.47,-71.46 -165.13,-107.2 -258.8,-107.2 m 509.73,343.55 c 9.57,0.3 19.13,0.87 28.68,1.63 -0.01,-0.03 -0.01,-0.07 -0.01,-0.1 -9.54,-0.76 -19.1,-1.27 -28.67,-1.53"
         id="path440" /></clipPath><clipPath
       clipPathUnits="userSpaceOnUse"
       id="clipPath454"><path
         d="m 2500.02,1852.38 v 151.67 c 93.67,0 187.33,35.74 258.8,107.2 69.64,69.64 105.24,160.35 107.03,251.6 30.08,-7.36 60.69,-12.07 91.43,-14.18 12.56,-0.87 25.15,-1.31 37.73,-1.31 4.91,0 9.83,0.09 14.74,0.24 9.57,0.26 19.13,0.77 28.67,1.53 -9.89,-123.57 -61.87,-244.37 -156.19,-338.68 -52.05,-52.05 -112.16,-91.25 -176.34,-117.59 -65.77,-26.98 -135.82,-40.48 -205.87,-40.48"
         id="path452" /></clipPath><clipPath
       clipPathUnits="userSpaceOnUse"
       id="clipPath466"><path
         d="m 2612.8,3269.77 v 0.01 c 0.88,0.88 1.75,1.77 2.6,2.66 71.84,70.91 158.76,117.56 250.45,139.99 -1.79,91.25 -37.39,181.96 -107.03,251.6 -71.47,71.46 -165.13,107.19 -258.8,107.19 v 151.6 c 138.43,0 276.84,-52.68 382.22,-158.06 0.19,-0.19 0.4,-0.4 0.59,-0.59 0.05,-0.05 0.09,-0.09 0.14,-0.14 0.15,-0.15 0.3,-0.31 0.46,-0.46 0.05,-0.06 0.09,-0.1 0.14,-0.15 0.16,-0.16 0.31,-0.31 0.46,-0.46 0.05,-0.05 0.1,-0.1 0.14,-0.14 0.15,-0.16 0.31,-0.31 0.46,-0.47 0.05,-0.04 0.09,-0.09 0.14,-0.14 0.15,-0.15 0.31,-0.32 0.47,-0.47 0.04,-0.05 0.08,-0.08 0.12,-0.13 0.17,-0.17 0.32,-0.33 0.49,-0.49 0.03,-0.04 0.07,-0.08 0.1,-0.11 0.18,-0.18 0.37,-0.38 0.55,-0.56 0.01,-0.01 0.03,-0.03 0.04,-0.04 0.61,-0.62 1.19,-1.22 1.8,-1.85 0.02,-0.02 0.04,-0.05 0.06,-0.06 0.18,-0.19 0.34,-0.35 0.51,-0.53 0.05,-0.05 0.1,-0.11 0.15,-0.16 0.14,-0.14 0.28,-0.29 0.42,-0.43 0.07,-0.07 0.13,-0.13 0.19,-0.2 0.13,-0.13 0.26,-0.26 0.38,-0.39 0.07,-0.08 0.15,-0.16 0.22,-0.23 0.11,-0.12 0.23,-0.24 0.34,-0.36 0.08,-0.08 0.17,-0.17 0.25,-0.26 0.1,-0.1 0.2,-0.21 0.3,-0.31 0.1,-0.1 0.19,-0.2 0.28,-0.3 0.09,-0.09 0.16,-0.16 0.24,-0.25 0.12,-0.13 0.23,-0.24 0.34,-0.36 0.02,-0.01 0.05,-0.05 0.06,-0.06 82.6,-86.97 130.55,-194.9 144.1,-306.27 0.9,-7.43 1.65,-14.89 2.25,-22.35 v 0 c 0,-0.02 0.01,-0.05 0.01,-0.07 -14.46,1.16 -28.94,1.87 -43.43,1.87 -138.43,0 -276.84,-52.68 -382.21,-158.07 m 36.93,57.6 c 6.43,17.45 9.78,36.1 9.78,55.25 v 0 0 c 0,42.6 -16.59,82.65 -46.71,112.77 -30.13,30.12 -70.18,46.71 -112.78,46.71 v 0.23 c 40.85,0 81.68,-15.58 112.84,-46.74 45.49,-45.48 57.78,-111.59 36.87,-168.22"
         id="path464" /></clipPath><clipPath
       clipPathUnits="userSpaceOnUse"
       id="clipPath478"><path
         d="m 2615.4,3272.44 c 7.19,7.53 13.5,15.6 18.93,24.07 6.27,9.73 11.42,20.07 15.4,30.86 20.91,56.63 8.62,122.74 -36.87,168.22 -31.16,31.16 -71.99,46.74 -112.84,46.74 v 228.89 c 93.67,0 187.33,-35.73 258.8,-107.19 69.64,-69.64 105.24,-160.35 107.03,-251.6 -91.69,-22.43 -178.61,-69.08 -250.45,-139.99"
         id="path476" /></clipPath><clipPath
       clipPathUnits="userSpaceOnUse"
       id="clipPath490"><path
         d="m 1845.56,2887.64 h -229.12 c 0,93.66 35.73,187.33 107.2,258.79 v 0.01 c 69.66,69.66 160.42,105.27 251.72,107.03 22.47,-91.95 69.32,-179.11 140.55,-251.07 0.19,-0.2 0.38,-0.4 0.57,-0.6 -30.91,30.16 -71.14,45.25 -111.37,45.25 -0.01,0 -0.02,0 -0.03,0 -0.02,0 -0.03,0 -0.04,0 -40.84,0 -81.68,-15.55 -112.76,-46.64 -30.13,-30.12 -46.72,-70.17 -46.72,-112.77 v 0 0 0"
         id="path488" /></clipPath><clipPath
       clipPathUnits="userSpaceOnUse"
       id="clipPath502"><path
         d="m 1616.44,2887.64 h -151.6 c 0,138.42 52.69,276.83 158.06,382.21 0.19,0.2 0.39,0.4 0.59,0.59 0.06,0.06 0.12,0.12 0.18,0.18 0.14,0.15 0.27,0.27 0.41,0.41 0.07,0.07 0.14,0.14 0.21,0.21 0.13,0.13 0.25,0.25 0.38,0.38 0.07,0.07 0.16,0.15 0.23,0.22 0.12,0.12 0.25,0.25 0.37,0.37 0.07,0.07 0.15,0.14 0.22,0.22 0.13,0.13 0.25,0.24 0.38,0.37 0.08,0.08 0.15,0.15 0.23,0.22 0.11,0.12 0.24,0.24 0.35,0.36 0.09,0.08 0.17,0.15 0.25,0.23 0.11,0.12 0.22,0.22 0.34,0.34 0.09,0.09 0.17,0.16 0.26,0.25 0.1,0.11 0.23,0.23 0.33,0.33 0.09,0.08 0.18,0.17 0.26,0.25 0.08,0.08 0.17,0.16 0.25,0.24 0.24,0.24 0.49,0.48 0.73,0.71 0.05,0.05 0.11,0.11 0.16,0.16 0.14,0.14 0.29,0.28 0.43,0.41 0.05,0.05 0.1,0.1 0.15,0.15 0.14,0.14 0.29,0.28 0.43,0.42 0.04,0.04 0.1,0.09 0.14,0.13 0.15,0.15 0.32,0.3 0.47,0.45 0.03,0.03 0.06,0.06 0.09,0.08 0.17,0.17 0.34,0.33 0.51,0.5 l 0.02,0.01 c 93.07,89.17 210.44,138.42 330.42,148.01 -1.15,-14.46 -1.87,-28.94 -1.87,-43.43 0,-43.39 5.18,-86.78 15.54,-129.15 -91.3,-1.76 -182.06,-37.37 -251.72,-107.03 v -0.01 c -71.47,-71.46 -107.2,-165.13 -107.2,-258.79"
         id="path500" /></clipPath><clipPath
       clipPathUnits="userSpaceOnUse"
       id="clipPath514"><path
         d="m 2117.9,3000.41 h -0.02 c -0.47,0.47 -0.93,0.93 -1.4,1.39 -0.19,0.2 -0.38,0.4 -0.57,0.6 0.66,-0.66 1.32,-1.33 1.99,-1.99"
         id="path512" /></clipPath><clipPath
       clipPathUnits="userSpaceOnUse"
       id="clipPath526"><path
         d="m 2389.08,2278.09 c -0.04,0.04 -0.09,0.09 -0.14,0.13 0.05,-0.05 0.09,-0.09 0.14,-0.13 m -0.2,0.19 c -0.03,0.03 -0.06,0.06 -0.09,0.09 0.03,-0.03 0.06,-0.06 0.09,-0.09 m -0.19,0.19 c -0.02,0.02 -0.04,0.04 -0.06,0.06 0.02,-0.02 0.04,-0.05 0.06,-0.06 m -0.18,0.18 c -0.02,0.01 -0.03,0.02 -0.04,0.03 0.01,-0.01 0.02,-0.02 0.04,-0.03 m -1.98,1.96 c -30.61,31 -45.92,71.53 -45.92,112.05 v 0 0 0 c 0.01,-40.52 15.31,-81.05 45.92,-112.05"
         id="path524" /></clipPath><linearGradient
       x1="0"
       y1="0"
       x2="1"
       y2="0"
       gradientUnits="userSpaceOnUse"
       gradientTransform="matrix(1259.4,1259.4,1259.4,-1259.4,1870.32,2257.94)"
       spreadMethod="pad"
       id="linearGradient532"><stop
         style="stop-opacity:1;stop-color:#634aa8"
         offset="0"
         id="stop528" /><stop
         style="stop-opacity:1;stop-color:#ed0b82"
         offset="1"
         id="stop530" /></linearGradient><clipPath
       clipPathUnits="userSpaceOnUse"
       id="clipPath542"><path
         d="m 2500.02,2004.05 c -93.66,0 -187.32,35.74 -258.79,107.2 -69.63,69.63 -105.24,160.35 -107.03,251.59 92.52,22.63 180.17,69.94 252.38,141.92 -30.65,-31.01 -45.97,-71.55 -45.97,-112.1 v 0 0 0 0 c 0,-40.52 15.31,-81.05 45.92,-112.05 0.24,-0.24 0.48,-0.48 0.73,-0.73 0.4,-0.4 0.8,-0.8 1.21,-1.2 0.01,-0.01 0.02,-0.02 0.04,-0.03 0.04,-0.04 0.08,-0.08 0.12,-0.12 0.02,-0.02 0.04,-0.04 0.06,-0.06 0.04,-0.04 0.06,-0.06 0.1,-0.1 0.03,-0.03 0.06,-0.06 0.09,-0.09 0.02,-0.02 0.04,-0.04 0.06,-0.06 0.05,-0.04 0.1,-0.09 0.14,-0.13 0.01,-0.01 0.01,-0.02 0.02,-0.02 29.9,-28.97 69.18,-44.9 110.92,-44.9 v 0 -229.12 0"
         id="path540" /></clipPath><clipPath
       clipPathUnits="userSpaceOnUse"
       id="clipPath554"><path
         d="m 2134.2,2362.84 c 0,0.02 0,0.03 0,0.06 92.52,22.61 180.17,69.89 252.39,141.87 l -0.01,-0.01 c -72.21,-71.98 -159.86,-119.29 -252.38,-141.92"
         id="path552" /></clipPath><clipPath
       clipPathUnits="userSpaceOnUse"
       id="clipPath566"><path
         d="m 2500.02,1852.38 c -90.34,0 -180.69,22.45 -261.84,67.34 -43.19,23.89 -83.77,54.13 -120.37,90.73 -25.5,25.49 -47.9,52.93 -67.21,81.83 -52.11,77.97 -81.72,166.6 -88.96,256.72 14.39,-1.15 28.84,-1.72 43.27,-1.72 43.43,0 86.88,5.19 129.29,15.56 1.79,-91.24 37.4,-181.96 107.03,-251.59 71.47,-71.46 165.13,-107.2 258.79,-107.2 v 0 -151.67 0"
         id="path564" /></clipPath><clipPath
       clipPathUnits="userSpaceOnUse"
       id="clipPath578"><path
         d="m 2004.91,2347.28 c -14.43,0 -28.88,0.57 -43.27,1.72 -0.01,0.07 -0.01,0.15 -0.02,0.23 14.45,-1.15 28.93,-1.87 43.42,-1.87 43.39,0 86.79,5.18 129.16,15.54 0,-0.03 0,-0.04 0,-0.06 -42.41,-10.37 -85.86,-15.56 -129.29,-15.56"
         id="path576" /></clipPath></defs><g
     id="g619"
     transform="matrix(0.2970292,0,0,-0.2970292,-51.577453,100.17549)"
     style="fill:#000000"><g
       id="g539"
       transform="scale(0.1)"
       style="fill:#000000"><g
         id="g537"
         clip-path="url(#clipPath454)"
         style="fill:#000000" /></g></g><g
     id="g1392"
     transform="scale(1.404921)"><g
       id="g961"
       transform="matrix(0.53351964,0,0,0.53351964,138.81513,0.65501356)"><circle
         style="fill:#283350;fill-opacity:1;stroke-width:0.806285"
         id="path1375"
         cx="14.602345"
         cy="14.602345"
         r="14.602345" /><rect
         style="fill:#f93800;fill-opacity:1;stroke-width:0.803675"
         id="rect1377"
         width="3.0885978"
         height="16.76512"
         x="13.058045"
         y="6.2197862" /></g><text
       xml:space="preserve"
       style="font-style:normal;font-variant:normal;font-weight:normal;font-stretch:normal;font-size:24px;line-height:1.25;font-family:'URW Bookman';-inkscape-font-specification:'URW Bookman, Normal';font-variant-ligatures:normal;font-variant-caps:normal;font-variant-numeric:normal;font-variant-east-asian:normal;fill:#000000;fill-opacity:1;stroke:none"
       x="14.475303"
       y="16.656"
       id="text298"><tspan
         sodipodi:role="line"
         id="tspan296"
         x="14.475303"
         y="16.656">DIGITAL JOURNEY</tspan></text><text
       xml:space="preserve"
       style="font-style:normal;font-variant:normal;font-weight:normal;font-stretch:normal;font-size:10.6667px;line-height:1.25;font-family:'Product Sans';-inkscape-font-specification:'Product Sans, Normal';font-variant-ligatures:normal;font-variant-caps:normal;font-variant-numeric:normal;font-variant-east-asian:normal;fill:#f93800;fill-opacity:1;stroke:none"
       x="126.0929"
       y="32.112034"
       id="text302"><tspan
         sodipodi:role="line"
         id="tspan300"
         x="126.0929"
         y="32.112034"
         style="font-size:10.6667px;fill:#f93800;fill-opacity:1">Mi vida entre unos y ceros</tspan></text></g></svg>
